<svg width="264" height="112" viewBox="0 0 264 112" fill="none" xmlns="http://www.w3.org/2000/svg">
<path d="M21.3265 98.5834C21.3069 100.723 20.5447 102.541 19.0398 104.036C17.5252 105.521 15.7124 106.264 13.6017 106.264C11.4616 106.264 9.62447 105.521 8.09026 104.036C6.5756 102.541 5.81827 100.723 5.81827 98.5834C5.81827 96.4238 6.57073 94.5866 8.07561 93.072C9.5805 91.5475 11.4128 90.7853 13.5724 90.7853C14.6375 90.7853 15.6831 91.0003 16.7092 91.4303L15.6831 93.7316C14.9796 93.4384 14.2711 93.2918 13.5577 93.2918C12.0919 93.2918 10.8558 93.8049 9.84924 94.8309C8.83295 95.8667 8.32479 97.1127 8.32479 98.5687C8.32479 100.025 8.84272 101.256 9.87855 102.263C10.9242 103.279 12.1652 103.787 13.6017 103.787C15.0382 103.787 16.2597 103.284 17.2662 102.277C18.2727 101.271 18.7857 100.039 18.8053 98.5834H21.3265Z" fill="white"/>
<path d="M43.1034 98.5394C43.1034 97.1029 42.5855 95.8716 41.5496 94.8456C40.5138 93.8097 39.2776 93.2918 37.8411 93.2918C36.4144 93.2918 35.1831 93.8097 34.1473 94.8456C33.1115 95.8716 32.5936 97.1029 32.5936 98.5394C32.5936 99.9759 33.1115 101.212 34.1473 102.248C35.1831 103.274 36.4144 103.787 37.8411 103.787C39.2678 103.787 40.504 103.274 41.5496 102.248C42.5855 101.212 43.1034 99.9759 43.1034 98.5394ZM43.1034 106.044V103.787C41.6278 105.438 39.7906 106.264 37.5919 106.264C35.5105 106.264 33.7369 105.502 32.2711 103.978C30.815 102.443 30.087 100.631 30.087 98.5394C30.087 96.4091 30.8444 94.5866 32.359 93.072C33.8835 91.5475 35.7108 90.7853 37.8411 90.7853C39.9812 90.7853 41.8086 91.5475 43.3232 93.072C44.8379 94.5866 45.5952 96.4091 45.5952 98.5394V106.044H43.1034Z" fill="white"/>
<path d="M62.11 93.2918C61.0057 93.2918 60.0627 93.6827 59.281 94.4644C58.4992 95.2462 58.1083 96.1892 58.1083 97.2935V106.044H55.6018V97.2935C55.6018 95.5736 56.2565 94.0589 57.566 92.7495C58.8754 91.44 60.3901 90.7853 62.11 90.7853V93.2918Z" fill="white"/>
<path d="M80.2371 101.94C80.2371 103.142 79.8022 104.163 78.9325 105.004C78.0628 105.844 77.0319 106.264 75.8397 106.264C74.8234 106.264 73.9146 105.951 73.1133 105.326C72.3022 104.691 71.7892 103.89 71.5742 102.922L73.9781 102.262C74.0172 102.487 74.0954 102.692 74.2126 102.878C74.3299 103.064 74.4716 103.223 74.6377 103.354C74.8038 103.486 74.9895 103.591 75.1947 103.67C75.3999 103.748 75.6149 103.787 75.8397 103.787C76.3673 103.787 76.8169 103.606 77.1882 103.245C77.5693 102.883 77.7598 102.448 77.7598 101.94C77.7598 101.139 77.2175 100.489 76.1328 99.9905C75.1849 99.5507 74.4593 99.2136 73.9561 98.9791C73.4528 98.7446 73.1719 98.6077 73.1133 98.5686C72.0286 97.7967 71.4862 96.668 71.4862 95.1826C71.4862 93.9807 71.9162 92.9497 72.7761 92.0898C73.6458 91.2201 74.6817 90.7852 75.8836 90.7852C76.8706 90.7852 77.7647 91.1028 78.5661 91.738C79.3674 92.3634 79.8804 93.1647 80.1052 94.1419L77.6866 94.7869C77.4618 93.7901 76.8608 93.2918 75.8836 93.2918C75.3755 93.2918 74.926 93.4774 74.5351 93.8488C74.1638 94.2201 73.9781 94.6647 73.9781 95.1826C73.9781 95.9742 74.5205 96.6191 75.6051 97.1175C76.5433 97.5573 77.2615 97.8968 77.7599 98.1362C78.2582 98.3756 78.5416 98.5198 78.61 98.5686C79.6947 99.3504 80.2371 100.474 80.2371 101.94Z" fill="white"/>
<path d="M118.881 98.5393C118.881 97.1028 118.363 95.8716 117.327 94.8455C116.301 93.8097 115.069 93.2918 113.633 93.2918C112.196 93.2918 110.96 93.8097 109.924 94.8455C108.898 95.8716 108.385 97.1028 108.385 98.5393C108.385 99.9758 108.898 101.212 109.924 102.248C110.96 103.274 112.196 103.787 113.633 103.787C115.069 103.787 116.301 103.274 117.327 102.248C118.363 101.212 118.881 99.9758 118.881 98.5393ZM121.387 98.5393C121.387 100.64 120.654 102.453 119.188 103.977C117.732 105.502 115.964 106.264 113.882 106.264C111.693 106.264 109.861 105.438 108.385 103.787V111.028H105.879V98.5393C105.879 96.409 106.636 94.5865 108.151 93.0719C109.675 91.5474 111.503 90.7852 113.633 90.7852C115.754 90.7852 117.576 91.5474 119.1 93.0719C120.625 94.5865 121.387 96.409 121.387 98.5393Z" fill="white"/>
<path d="M131.394 106.044V86.0361H133.885V106.044H131.394Z" fill="white"/>
<path d="M156.908 98.5394C156.908 97.1029 156.39 95.8716 155.355 94.8456C154.319 93.8097 153.083 93.2918 151.646 93.2918C150.219 93.2918 148.988 93.8097 147.952 94.8456C146.916 95.8716 146.399 97.1029 146.399 98.5394C146.399 99.9759 146.916 101.212 147.952 102.248C148.988 103.274 150.219 103.787 151.646 103.787C153.073 103.787 154.309 103.274 155.355 102.248C156.39 101.212 156.908 99.9759 156.908 98.5394ZM156.908 106.044V103.787C155.433 105.438 153.596 106.264 151.397 106.264C149.315 106.264 147.542 105.502 146.076 103.978C144.62 102.443 143.892 100.631 143.892 98.5394C143.892 96.4091 144.649 94.5866 146.164 93.072C147.688 91.5475 149.516 90.7853 151.646 90.7853C153.786 90.7853 155.614 91.5475 157.128 93.072C158.643 94.5866 159.4 96.4091 159.4 98.5394V106.044H156.908Z" fill="white"/>
<path d="M173.159 93.541V106.044H170.653V93.541H168.161V91.0345H170.653V86.0361H173.159V91.0345H175.666V93.541H173.159Z" fill="white"/>
<path d="M191.535 88.528C190.441 88.528 189.498 88.9237 188.706 89.7153C187.925 90.497 187.534 91.4351 187.534 92.5296V93.541H190.04V96.0328H187.534V106.044H185.042V96.0328H183.781V93.541H185.042V92.5296C185.042 90.8195 185.697 89.3097 187.006 88.0003C188.316 86.6908 189.825 86.0361 191.535 86.0361V88.528Z" fill="white"/>
<path d="M212.052 98.5394C212.052 97.1029 211.534 95.8716 210.498 94.8456C209.462 93.8097 208.226 93.2918 206.79 93.2918C205.363 93.2918 204.132 93.8097 203.096 94.8456C202.06 95.8716 201.542 97.1029 201.542 98.5394C201.542 99.9759 202.06 101.212 203.096 102.248C204.132 103.274 205.363 103.787 206.79 103.787C208.216 103.787 209.452 103.274 210.498 102.248C211.534 101.212 212.052 99.9759 212.052 98.5394ZM214.544 98.5394C214.544 100.67 213.786 102.492 212.272 104.007C210.767 105.512 208.939 106.264 206.79 106.264C204.649 106.264 202.822 105.512 201.307 104.007C199.793 102.492 199.035 100.67 199.035 98.5394C199.035 96.4091 199.793 94.5866 201.307 93.072C202.832 91.5475 204.659 90.7853 206.79 90.7853C208.93 90.7853 210.757 91.5475 212.272 93.072C213.786 94.5866 214.544 96.4091 214.544 98.5394Z" fill="white"/>
<path d="M230.443 93.2918C229.339 93.2918 228.396 93.6827 227.614 94.4644C226.832 95.2462 226.441 96.1892 226.441 97.2935V106.044H223.935V97.2935C223.935 95.5736 224.589 94.0589 225.899 92.7495C227.208 91.44 228.723 90.7853 230.443 90.7853V93.2918Z" fill="white"/>
<path d="M257.203 106.044V96.7951C257.203 95.8472 256.891 95.0312 256.265 94.3472C255.63 93.6436 254.858 93.2918 253.949 93.2918C252.953 93.2918 252.161 93.6192 251.575 94.2739C250.988 94.9384 250.695 95.7788 250.695 96.7951V106.044H248.189V96.7951C248.189 95.7788 247.896 94.9384 247.309 94.2739C246.743 93.6192 245.956 93.2918 244.949 93.2918C244.031 93.2918 243.259 93.6436 242.633 94.3472C242.008 95.0313 241.695 95.8472 241.695 96.7951V106.044H239.189V96.7951C239.189 95.1729 239.746 93.7658 240.86 92.5736C241.993 91.3814 243.356 90.7853 244.949 90.7853C246.816 90.7853 248.316 91.5036 249.449 92.94C250.563 91.5036 252.063 90.7853 253.949 90.7853C255.552 90.7853 256.91 91.3814 258.024 92.5736C259.138 93.7658 259.695 95.1729 259.695 96.7951V106.044H257.203Z" fill="white"/>
<path d="M18.7022 0.353546C13.7809 0.353546 9.08841 2.36459 5.73665 5.7239C2.1636 9.29694 0.37384 13.9894 0.37384 18.9107V57.3571C0.37384 62.2708 2.15604 66.9633 5.73665 70.5439C9.0884 73.8956 13.7808 75.9067 18.7022 75.9067C23.6234 75.9067 28.3159 73.8956 31.6677 70.5439C35.2396 66.9708 37.0305 62.2784 37.0305 57.3571V49.9832H25.4057V57.3646C25.4057 59.1555 24.7353 60.9452 23.3946 62.2859C22.2827 63.4064 20.4919 64.297 18.7022 64.297C16.92 64.297 15.1291 63.4064 14.0097 62.2859C12.669 60.9452 11.9987 59.1555 11.9987 57.3646V18.9107C11.9987 17.1199 12.669 15.3301 14.0097 13.9894C15.1215 12.87 16.9113 11.9783 18.7022 11.9783C20.4843 11.9783 22.2752 12.87 23.3946 13.9894C24.7353 15.3301 25.4057 17.1199 25.4057 18.9107V26.277H37.0305V18.9031C37.0305 13.9894 35.2483 9.29694 31.6677 5.71633C28.3159 2.36458 23.6235 0.353546 18.7022 0.353546Z" fill="white"/>
<path d="M64.8009 28.0743L70.6138 50.4334H58.7677L64.8009 28.0743ZM74.1944 63.8404L77.3249 75.9142H89.3998L69.502 0.353546H59.8882L39.9904 75.9142H52.0642L55.1958 63.8404H74.1944Z" fill="white"/>
<path d="M120.776 42.1603C122.558 41.2611 124.349 40.1493 125.918 38.5797C129.27 35.228 131.281 30.5269 131.281 25.8344V18.6818C131.281 13.7605 129.27 9.0681 125.918 5.71633C122.345 2.36458 117.874 0.353546 112.953 0.353546H94.3955V75.9142H106.02V43.9425H108.931L121.446 75.9142H133.962L120.776 42.1603ZM106.02 11.9783H112.953C114.742 11.9783 116.304 12.87 117.645 13.9894C118.765 15.3301 119.435 16.8921 119.435 18.6818V25.843C119.435 27.6328 118.765 29.1948 117.645 30.3142C116.304 31.6549 114.742 32.3253 112.953 32.3253H106.02V11.9783Z" fill="white"/>
<path d="M175.102 54.6757C175.102 49.7544 173.761 45.512 170.851 41.7101C167.728 37.688 163.477 34.7778 159.006 32.7667C156.545 31.6473 153.864 29.8565 152.074 27.6253C150.733 25.8431 150.063 23.8233 150.063 21.5921V18.9107C150.063 17.1198 150.733 15.3301 152.074 13.9894C153.186 12.87 154.976 11.9784 156.766 11.9784C158.556 11.9784 160.339 12.87 161.459 13.9894C162.799 15.3301 163.47 17.1198 163.47 18.9107V23.8395H175.095V18.9182C175.095 14.0056 173.312 9.31314 169.732 5.73254C166.38 2.38079 161.688 0.369751 156.766 0.369751C151.845 0.369751 147.153 2.38079 143.801 5.73254C140.228 9.30449 138.438 13.9969 138.438 18.9182V21.5996C138.438 26.5134 139.786 30.7643 142.689 34.7864C145.819 38.5872 150.063 41.4975 154.314 43.5086C156.995 44.628 159.676 46.4188 161.466 48.6501C162.807 50.4334 163.477 52.452 163.477 54.6832V57.3646C163.477 59.1555 162.807 60.9452 161.466 62.2859C160.354 63.4064 158.565 64.297 156.774 64.297C154.992 64.297 153.202 63.4064 152.081 62.2859C150.741 60.9452 150.07 59.1555 150.07 57.3646V52.4444H138.445V57.3571C138.445 62.2708 140.228 66.9633 143.808 70.5439C147.16 73.8956 151.852 75.9067 156.774 75.9067C161.695 75.9067 166.388 73.8956 169.739 70.5439C173.312 66.9708 175.102 62.2784 175.102 57.3571V54.6757Z" fill="white"/>
<path d="M216.069 75.9142V0.353546H214.058V75.9142H216.069Z" fill="white"/>
<path d="M247.981 0.353546C243.73 0.353546 239.93 2.14313 237.027 5.04552C234.119 7.72665 232.557 11.7483 232.557 15.9989V60.2613C232.557 64.7331 234.119 68.526 237.027 71.4359C239.937 74.1171 243.73 75.9067 247.981 75.9067C252.231 75.9067 256.253 74.1171 258.934 71.4359C261.837 68.5335 263.626 64.7331 263.626 60.2613V15.9989C263.626 11.7483 261.844 7.72667 258.934 5.04552C256.253 2.14313 252.231 0.353546 247.981 0.353546ZM257.594 6.38609C260.055 8.84704 261.395 12.1984 261.395 15.9989V60.2613C261.395 64.0628 260.055 67.4143 257.594 69.8741C255.134 72.334 251.782 73.6746 247.981 73.6746C244.401 73.6746 241.049 72.334 238.589 69.8741C236.129 67.4143 234.568 64.0628 234.568 60.2613V15.9989C234.568 12.1984 236.129 8.84704 238.589 6.38609C241.049 3.92622 244.401 2.58565 247.981 2.58565C251.782 2.58565 255.134 3.92622 257.594 6.38609Z" fill="white"/>
</svg>
